#!OML:ASF H:\Terrain\Patient Classification 1\Walking\liu\liu.ASF
:FULLY-SPECIFIED
:DEGREES
388
root 10.2476 17.1745 21.0998 7.99197 -1.06094 -3.27535
lowerback -6.15902 0.731946 -0.056237
upperback -1.1576 0.912577 2.64385
thorax 2.21574 0.449098 2.82985
lowerneck -18.942 -4.92811 -12.4767
upperneck 20.2069 -6.44554 13.4234
head 10.4691 -2.42881 5.98757
rclavicle 2.36057e-015 2.38542e-014
rhumerus -32.3035 19.5245 -83.8692
rradius 51.9343
rwrist -24.9136
rhand -33.2252 -26.6315
rfingers 7.12502
rthumb -6.43161 -56.5139
lclavicle 2.36057e-015 2.38542e-014
lhumerus -46.328 -9.72523 94.7044
lradius 25.0729
lwrist 5.40668
lhand -10.9729 -22.6331
lfingers 7.12502
lthumb 15.0466 6.80008
rfemur 0.347243 3.87427 29.4869
rtibia 14.3764
rfoot -18.4532 1.00319
rtoes -18.8891
lfemur -40.7227 2.55048 -15.7168
ltibia 21.4276
lfoot -12.2973 6.95563
ltoes -20.641
389
root 10.2684 17.1723 21.2604 7.812 -1.59197 -3.52982
lowerback -6.18281 0.923218 0.332126
upperback -0.867431 1.13451 2.64231
thorax 2.5249 0.558924 2.63181
lowerneck -19.8353 -5.06457 -12.5085
upperneck 20.4662 -6.58298 13.541
head 10.7615 -2.44971 6.02729
rclavicle 1.46852e-014 2.14687e-014
rhumerus -32.075 19.3166 -83.8584
rradius 52.4977
rwrist -25.2478
rhand -33.194 -27.8054
rfingers 7.12502
rthumb -6.40148 -57.6886
lclavicle 1.46852e-014 2.14687e-014
lhumerus -45.9577 -10.0163 94.8456
lradius 25.1237
lwrist 5.44815
lhand -11.5451 -22.8631
lfingers 7.12502
lthumb 14.4953 6.61061
rfemur 1.84552 3.67961 29.5552
rtibia 13.0834
rfoot -18.1987 1.61112
rtoes -19.2544
lfemur -40.3522 1.34451 -14.549
ltibia 20.0197
lfoot -13.1381 8.89701
ltoes -21.6396
390
root 10.28 17.159 21.4063 8.06998 -1.93198 -3.54144
lowerback -6.76494 0.967615 0.243096
upperback -0.625696 1.18191 2.67921
thorax 3.09553 0.57625 2.74208
lowerneck -20.6329 -5.1738 -12.4266
upperneck 20.6094 -6.69583 13.5723
head 10.9832 -2.46288 6.01334
rclavicle -8.19987e-015 -2.0276e-014
rhumerus -31.6592 19.2138 -83.7905
rradius 52.8809
rwrist -25.4583
rhand -33.2338 -28.1035
rfingers 7.12502
rthumb -6.43995 -57.9856
lclavicle -8.19987e-015 -2.0276e-014
lhumerus -45.3289 -10.0683 94.921
lradius 25.0396
lwrist 5.53186
lhand -11.7791 -22.9893
lfingers 7.12502
lthumb 14.2699 6.50039
rfemur 3.03667 4.01891 29.4667
rtibia 11.459
rfoot -17.8942 1.5442
rtoes -19.7041
lfemur -40.7399 0.298006 -13.7388
ltibia 18.992
lfoot -13.7507 10.5805
ltoes -20.6514
391
root 10.2946 17.1468 21.5454 8.23062 -2.28517 -3.79023
lowerback -7.04326 1.05033 0.387314
upperback -0.544002 1.26745 2.85167
thorax 3.33137 0.617547 2.85664
lowerneck -20.9612 -5.28007 -12.3919
upperneck 20.7118 -6.73655 13.2162
head 11.0731 -2.50786 5.86664
rclavicle 6.68413e-015 5.56597e-015
rhumerus -31.6086 19.1488 -83.6535
rradius 53.2354
rwrist -25.5798
rhand -33.06 -28.2358
rfingers 7.12502
rthumb -6.27216 -58.123
lclavicle 6.68413e-015 5.56597e-015
lhumerus -45.0493 -9.95646 95.1255
lradius 25.0536
lwrist 5.52192
lhand -11.9128 -23.0737
lfingers 7.12502
lthumb 14.1411 6.42505
rfemur 4.39026 4.2236 29.6471
rtibia 9.5088
rfoot -17.2102 1.40023
rtoes -20.4299
lfemur -41.1044 -0.834696 -12.5539
ltibia 18.2425
lfoot -14.0068 12.683
ltoes -20.4195
392
root 10.3049 17.1333 21.6775 8.48486 -2.56098 -4.34206
lowerback -7.22746 1.20074 0.846624
upperback -0.415089 1.41467 3.07147
thorax 3.56722 0.693953 2.84884
lowerneck -21.5723 -5.48519 -12.7443
upperneck 20.8182 -6.87182 13.3075
head 11.2684 -2.56658 5.94511
rclavicle -4.77083e-015 -1.07344e-014
rhumerus -31.3022 19.0844 -83.4577
rradius 53.5946
rwrist -26.1161
rhand -33.1665 -28.1775
rfingers 7.12502
rthumb -6.37493 -58.0616
lclavicle -4.77083e-015 -1.07344e-014
lhumerus -44.5277 -10.0645 95.2946
lradius 25.0548
lwrist 5.4226
lhand -11.8482 -23.1513
lfingers 7.12502
lthumb 14.2032 6.34307
rfemur 5.73954 4.40491 30.2107
rtibia 7.27567
rfoot -16.1135 1.30385
rtoes -20.4035
lfemur -41.6778 -1.92506 -10.9729
ltibia 17.7342
lfoot -14.2263 14.2368
ltoes -19.8591
393
root 10.3223 17.1215 21.8318 8.48194 -2.85866 -4.57615
lowerback -7.2938 1.18127 1.05293
upperback -0.524441 1.37207 3.09497
thorax 3.49715 0.67642 2.75234
lowerneck -21.15 -5.34314 -12.5874
upperneck 20.9116 -6.79358 13.3433
head 11.2052 -2.52866 5.94905
rclavicle -1.23495e-014 6.36111e-015
rhumerus -31.851 19.3223 -83.9839
rradius 54.169
rwrist -26.8792
rhand -33.533 -27.9014
rfingers 7.12502
rthumb -6.72878 -57.7745
lclavicle -1.23495e-014 6.36111e-015
lhumerus -44.8362 -10.1206 95.3254
lradius 25.2146
lwrist 5.6044
lhand -11.3694 -22.9238
lfingers 7.12502
lthumb 14.6646 6.53761
rfemur 7.65271 4.52804 30.3572
rtibia 4.61498
rfoot -14.777 1.30278
rtoes -19.5007
lfemur -41.8753 -2.97845 -9.89717
ltibia 17.3289
lfoot -14.6407 15.3063
ltoes -18.6419
394
root 10.352 17.1205 22.0262 8.21241 -3.18948 -4.24459
lowerback -7.67877 1.24456 0.850875
upperback -0.166246 1.45596 2.98079
thorax 4.07946 0.710971 2.77556
lowerneck -21.8043 -5.51634 -12.4371
upperneck 21.1329 -6.97866 13.1265
head 11.4269 -2.60252 5.81586
rclavicle -2.74571e-014 3.18055e-014
rhumerus -32.0018 19.055 -84.0573
rradius 54.8279
rwrist -27.3413
rhand -33.4838 -28.2393
rfingers 7.12502
rthumb -6.68131 -58.1139
lclavicle -2.74571e-014 3.18055e-014
lhumerus -44.4812 -10.5803 95.611
lradius 25.2824
lwrist 6.00383
lhand -10.8627 -22.3719
lfingers 7.12502
lthumb 15.1527 7.05334
rfemur 10.9876 4.58451 29.7735
rtibia 7.31528e-014
rfoot -12.6978 1.41963
rtoes -17.2884
lfemur -41.5641 -4.07045 -9.69074
ltibia 17.0786
lfoot -15.2612 16.4411
ltoes -17.2848
395
root 10.3604 17.1046 22.1489 8.21604 -3.49757 -4.49344
lowerback -7.34106 1.3342 0.938517
upperback -0.50675 1.58218 3.12248
thorax 3.52982 0.778697 2.86852
lowerneck -20.3946 -5.36575 -12.8918
upperneck 20.561 -6.82973 13.5281
head 10.9563 -2.57574 6.05249
rclavicle 1.1778e-014 -2.3059e-014
rhumerus -33.1897 18.8161 -84.3434
rradius 55.5047
rwrist -27.4641
rhand -33.1028 -28.9673
rfingers 7.12502
rthumb -6.31343 -58.8532
lclavicle 1.1778e-014 -2.3059e-014
lhumerus -45.0442 -10.7051 96.0386
lradius 25.3155
lwrist 6.37757
lhand -10.7658 -22.2401
lfingers 7.12502
lthumb 15.2461 7.17805
rfemur 11.4615 4.71999 29.9597
rtibia -1.90833e-014
rfoot -12.6029 1.73533
rtoes -15.8936
lfemur -41.7603 -5.31991 -8.36345
ltibia 16.8718
lfoot -15.6126 18.0874
ltoes -15.5246
396
root 10.376 17.0828 22.2948 8.28536 -3.76841 -4.79006
lowerback -7.47624 1.3782 1.16458
upperback -0.263085 1.60716 3.18444
thorax 3.86207 0.791578 2.81868
lowerneck -21.2138 -5.31582 -12.6686
upperneck 20.6554 -6.74539 13.5371
head 11.1269 -2.48941 6.03594
rclavicle 1.11816e-015 3.97569e-016
rhumerus -32.984 18.7019 -84.4445
rradius 56.0525
rwrist -27.8829
rhand -32.8427 -29.5318
rfingers 7.12502
rthumb -6.06237 -59.425
lclavicle 1.11816e-015 3.97569e-016
lhumerus -44.5152 -10.8238 96.0202
lradius 25.3706
lwrist 6.76173
lhand -10.8817 -22.4755
lfingers 7.12502
lthumb 15.1345 6.95107
rfemur 11.9478 4.83736 30.1882
rtibia -7.31528e-014
rfoot -12.6164 1.86404
rtoes -17.1279
lfemur -41.8973 -5.75055 -7.63404
ltibia 16.8034
lfoot -15.8981 19.0748
ltoes -15.9758
397
root 10.3954 17.0626 22.4583 8.35079 -3.90976 -4.96704
lowerback -7.50432 1.41314 1.37368
upperback -0.339054 1.63758 3.17487
thorax 3.80392 0.810803 2.69329
lowerneck -21.8685 -5.61525 -12.2046
upperneck 21.2085 -7.15506 12.953
head 11.4773 -2.68113 5.67967
rclavicle -1.59773e-014 -1.51076e-014
rhumerus -33.5676 18.411 -84.7835
rradius 56.7991
rwrist -28.5498
rhand -32.7924 -30.0766
rfingers 7.12502
rthumb -6.01378 -59.9712
lclavicle -1.59773e-014 -1.51076e-014
lhumerus -44.6281 -10.7263 95.907
lradius 25.5296
lwrist 6.62915
lhand -10.8907 -22.6928
lfingers 7.12502
lthumb 15.1257 6.73447
rfemur 12.4959 4.81555 30.2942
rtibia 4.13472e-014
rfoot -12.5555 1.87605
rtoes -19.6794
lfemur -41.8804 -5.18449 -7.87845
ltibia 16.7306
lfoot -15.7664 18.9653
ltoes -17.12
398
root 10.4149 17.0472 22.6286 8.38525 -3.95078 -5.16112
lowerback -7.48711 1.39648 1.55131
upperback -0.52548 1.60567 3.21333
thorax 3.60574 0.798578 2.62494
lowerneck -23.224 -5.92663 -11.5986
upperneck 22.4114 -7.6151 12.3308
head 12.2122 -2.86124 5.29304
rclavicle 4.04527e-014 4.29375e-014
rhumerus -34.3834 18.18 -85.1785
rradius 57.3369
rwrist -29.0597
rhand -33.1593 -29.8174
rfingers 7.12502
rthumb -6.36796 -59.7016
lclavicle 4.04527e-014 4.29375e-014
lhumerus -44.8791 -10.617 95.9332
lradius 25.5324
lwrist 6.50334
lhand -11.0543 -22.838
lfingers 7.12502
lthumb 14.9682 6.60108
rfemur 13.0657 4.69822 30.3979
rtibia -2.22639e-014
rfoot -12.4031 2.00537
rtoes -20.3999
lfemur -41.7763 -4.04886 -8.5755
ltibia 16.7461
lfoot -15.1132 17.4846
ltoes -16.2653
399
root 10.431 17.0278 22.7798 8.65352 -4.03364 -5.51582
lowerback -7.51797 1.32346 1.75342
upperback -0.828486 1.4951 3.37611
thorax 3.31339 0.746545 2.66319
lowerneck -24.8274 -5.93237 -10.2277
upperneck 24.3833 -7.58394 10.3712
head 13.1427 -2.91532 4.34692
rclavicle -1.46604e-015 -2.34566e-014
rhumerus -35.0901 18.3929 -85.5584
rradius 57.6218
rwrist -29.64
rhand -33.3267 -28.3473
rfingers 7.12502
rthumb -6.52959 -58.2266
lclavicle -1.46604e-015 -2.34566e-014
lhumerus -45.1892 -10.4258 96.093
lradius 25.511
lwrist 6.63232
lhand -11.3052 -22.7632
lfingers 7.12502
lthumb 14.7264 6.69374
rfemur 13.3177 4.6824 30.6638
rtibia -6.36111e-015
rfoot -12.2834 2.13409
rtoes -19.9048
lfemur -41.9162 -2.80149 -9.01931
ltibia 16.7914
lfoot -14.2065 15.7923
ltoes -14.6304
400
root 10.4466 17.0115 22.9277 8.88882 -4.22252 -5.58035
lowerback -7.44755 1.3167 1.76039
upperback -1.36906 1.50756 3.41637
thorax 2.71294 0.754557 2.68835
lowerneck -18.9678 -4.96201 -12.9694
upperneck 20.306 -6.56017 14.2272
head 10.5787 -2.43316 6.3686
rclavicle 9.64106e-015 -1.55052e-014
rhumerus -36.3546 18.5361 -86.0528
rradius 57.9106
rwrist -30.3575
rhand -32.7574 -27.4173
rfingers 7.12502
rthumb -5.97997 -57.3129
lclavicle 9.64106e-015 -1.55052e-014
lhumerus -46.0474 -10.2928 96.2863
lradius 25.6501
lwrist 6.78041
lhand -11.2455 -22.4826
lfingers 7.12502
lthumb 14.784 6.97009
rfemur 13.6324 4.72722 30.621
rtibia -3.18055e-014
rfoot -12.009 2.18393
rtoes -20.5886
lfemur -41.9122 -1.9646 -9.52205
ltibia 16.8348
lfoot -13.3254 14.8646
ltoes -14.1319
401
root 10.472 16.9913 23.1026 8.71368 -4.49637 -5.50051
lowerback -7.39136 1.46326 1.82461
upperback -1.74952 1.7152 3.39356
thorax 2.2839 0.859658 2.63819
lowerneck -17.8743 -5.02605 -12.7531
upperneck 20.7045 -6.6575 13.3225
head 10.4816 -2.59722 5.98524
rclavicle 1.00014e-014 1.27222e-014
rhumerus -37.8525 18.2243 -86.3712
rradius 58.2236
rwrist -30.8024
rhand -32.2599 -28.4389
rfingers 7.12502
rthumb -5.49964 -58.3476
lclavicle 1.00014e-014 1.27222e-014
lhumerus -47.0056 -10.2911 96.6265
lradius 25.7978
lwrist 6.65175
lhand -11.0244 -22.4124
lfingers 7.12502
lthumb 14.997 7.02458
rfemur 14.5845 4.77709 30.3512
rtibia -2.8625e-014
rfoot -11.8185 2.4951
rtoes -21.4494
lfemur -41.2944 -1.34525 -10.1958
ltibia 16.9003
lfoot -12.5196 14.0657
ltoes -13.1562
402
root 10.5009 16.9594 23.2889 8.53493 -4.71003 -5.57346
lowerback -7.8448 1.45562 1.84002
upperback -1.25895 1.66292 3.47531
thorax 3.04375 0.831429 2.73548
lowerneck -18.1299 -4.9168 -12.6685
upperneck 20.2243 -6.46846 13.4048
head 10.3294 -2.48627 6.01125
rclavicle 2.49723e-015 -4.29375e-014
rhumerus -37.6563 18.1814 -86.3868
rradius 58.424
rwrist -31.11
rhand -31.7246 -30.3398
rfingers 7.12502
rthumb -4.98278 -60.2612
lclavicle 2.49723e-015 -4.29375e-014
lhumerus -46.2077 -9.97105 96.4654
lradius 25.7209
lwrist 6.32298
lhand -10.9961 -22.6164
lfingers 7.12502
lthumb 15.0243 6.81848
rfemur 15.5966 4.80207 30.1824
rtibia 3.18055e-014
rfoot -11.6688 3.0494
rtoes -20.652
lfemur -40.7857 -0.762977 -10.6934
ltibia 17.2477
lfoot -11.8365 13.2919
ltoes -12.0559
